<svg width="68" height="68" viewBox="0 0 68 68" fill="none" xmlns="http://www.w3.org/2000/svg">
<circle cx="34" cy="34" r="30.72" stroke="white" stroke-width="5"/>
<path fill-rule="evenodd" clip-rule="evenodd" d="M18.3435 51.1587C18.3435 51.1587 15.4552 51.3706 16.204 48.1917C16.9529 45.0127 26.2596 23.8196 27.8642 20.0048C29.4688 16.1901 34.4966 15.3423 36.5291 20.2168C38.5616 25.0912 46.4777 45.1187 46.5847 45.0127C46.6917 44.9067 47.0126 21.1704 47.0126 19.2631C47.0126 17.3557 51.3985 16.7199 51.7195 19.475C52.0404 22.2301 51.8264 45.8604 51.7195 48.2976C51.6125 50.7348 45.8359 53.384 42.9476 48.2976C40.0593 43.2113 32.2502 23.2898 32.2502 23.1838C32.2502 23.0778 22.5155 45.7545 22.5155 45.7544C22.5155 45.7545 32.6781 45.8604 32.6781 45.7545C32.6781 45.6796 33.9845 45.7545 33.9845 48.2976C33.9845 50.8408 32.6781 50.9468 32.6781 50.9468L18.3435 51.1587Z" fill="white"/>
</svg>
